<svg xmlns="http://www.w3.org/2000/svg" width="270" height="60" viewBox="0 0 540 120" version="1.1"><path d="M 65.857 29.555 L 58.214 32.016 54.207 39.758 C 47.422 52.866, 43.258 71.924, 45.354 80.276 C 45.949 82.644, 58.817 90.346, 65.633 92.414 C 67.487 92.976, 73.131 86.640, 71.791 85.501 C 71.631 85.365, 69.996 84.489, 68.157 83.553 C 62.778 80.816, 65.281 80.587, 74.205 82.998 C 84.408 85.756, 97.427 85.434, 105.750 82.220 C 111.677 79.931, 113.986 81.085, 108.610 83.649 C 104.915 85.411, 104.931 86.052, 108.815 91.818 C 109.907 93.441, 119.527 89.795, 127.278 84.822 L 132.265 81.621 131.734 71.061 C 131.119 58.846, 128.286 48.780, 122.603 38.617 L 118.940 32.068 110.918 29.534 C 101.247 26.479, 100.314 26.435, 99.500 29 C 98.919 30.831, 97.987 31, 88.500 31 C 79.013 31, 78.081 30.831, 77.500 29 C 76.695 26.462, 75.246 26.531, 65.857 29.555 M 305.074 47.206 C 291.697 54.139, 296.207 74.009, 311.154 73.996 C 328.394 73.981, 330.044 48.538, 313 45.530 C 310.415 45.074, 308.343 45.512, 305.074 47.206 M 343.500 46.155 C 335.480 50.541, 337.543 59.262, 347.396 62.619 C 350.789 63.775, 351.966 64.645, 351.563 65.697 C 351.253 66.504, 351 67.352, 351 67.582 C 351 68.769, 346.947 67.746, 344.724 65.997 C 342.067 63.908, 339.541 64.147, 338.609 66.577 C 336.356 72.448, 349.347 76.662, 355.288 71.988 C 361.409 67.173, 359.419 59.385, 351.500 57.161 C 346.570 55.777, 344.660 54.359, 345.625 52.798 C 346.330 51.658, 350.765 51.810, 351.500 53 C 352.806 55.114, 357 52.352, 357 49.378 C 357 46.234, 347.501 43.967, 343.500 46.155 M 413.250 46.085 C 410.180 47.245, 410.239 47.507, 416.639 61.034 C 424.718 78.111, 426.229 78.117, 434.365 61.111 C 440.736 47.794, 440.855 47.264, 437.750 46.072 C 434.761 44.926, 434.214 45.564, 429.476 55.731 L 425.452 64.365 421.291 55.282 C 416.651 45.152, 416.419 44.887, 413.250 46.085 M 183.031 47.687 C 175.527 60.465, 171.122 72.449, 173.582 73.393 C 176.676 74.580, 178.118 73.961, 179.150 71 C 180.149 68.133, 180.452 68, 185.977 68 C 191.457 68, 191.822 68.156, 193 71 C 194.243 74, 195.448 74.533, 198.418 73.393 C 200.856 72.457, 200.288 70.397, 194.173 58 C 188.257 46.007, 185.511 43.465, 183.031 47.687 M 203.222 59.750 L 203.500 73.500 210 73.776 C 218.388 74.133, 222.635 72.022, 225.794 65.926 C 231.384 55.139, 224.248 46.011, 210.222 46.004 L 202.944 46 203.222 59.750 M 231.222 59.750 L 231.500 73.500 239.323 73.500 L 247.146 73.500 251.073 69.289 C 260.865 58.788, 253.698 46, 238.021 46 L 230.944 46 231.222 59.750 M 268 48.500 C 268 50.831, 268.336 51, 272.967 51 L 277.934 51 278.217 62.250 L 278.500 73.500 281.500 73.500 L 284.500 73.500 284.783 62.250 L 285.066 51 290.033 51 C 294.664 51, 295 50.831, 295 48.500 L 295 46 281.500 46 L 268 46 268 48.500 M 362.222 59.716 L 362.500 73.500 373 73.500 L 383.500 73.500 383.500 70.500 L 383.500 67.500 376.250 67.206 C 366.883 66.827, 364.865 63, 374.031 63 C 382.645 63, 382.293 56.762, 373.648 56.195 C 366.312 55.714, 367.299 53, 374.809 53 C 389.488 53, 387.509 46.606, 372.710 46.216 L 361.943 45.932 362.222 59.716 M 387.436 47.305 C 387.161 48.023, 387.062 54.211, 387.218 61.055 L 387.500 73.500 390.500 73.500 C 393.245 73.500, 393.526 73.181, 393.810 69.750 C 394.278 64.102, 398.908 64.253, 401.500 70 C 404.652 76.991, 410.506 74.899, 407.849 67.731 C 406.469 64.007, 406.430 63.012, 407.581 60.934 C 410.105 56.378, 408.963 51.280, 404.633 47.772 C 401.937 45.588, 388.238 45.216, 387.436 47.305 M 443.222 59.716 L 443.500 73.500 454 73.500 L 464.500 73.500 464.500 70.500 L 464.500 67.500 457.250 67.206 C 447.883 66.827, 445.865 63, 455.031 63 C 463.645 63, 463.293 56.762, 454.648 56.195 C 447.312 55.714, 448.299 53, 455.809 53 C 470.488 53, 468.509 46.606, 453.710 46.216 L 442.943 45.932 443.222 59.716 M 468.436 47.305 C 468.161 48.023, 468.062 54.211, 468.218 61.055 L 468.500 73.500 471.500 73.500 C 474.245 73.500, 474.526 73.181, 474.810 69.750 C 475.284 64.033, 480.293 64.193, 482.617 70 C 485.456 77.096, 491.511 74.890, 488.933 67.699 C 487.552 63.849, 487.538 62.964, 488.814 60.270 C 490.773 56.133, 489.662 50.666, 486.328 48.043 C 483.183 45.570, 469.322 44.998, 468.436 47.305 M 306.455 54.455 C 302.515 58.394, 303.270 64.054, 308.065 66.534 C 315.598 70.429, 322.084 59.358, 315.365 54.073 C 311.905 51.351, 309.453 51.456, 306.455 54.455 M 210 60 L 210 67 213.045 67 C 216.527 67, 221 63.166, 221 60.180 C 221 56.629, 217.173 53, 213.427 53 L 210 53 210 60 M 238 60 C 238 67.716, 240.267 69.303, 245.777 65.443 C 250.935 61.831, 247.666 53, 241.171 53 L 238 53 238 60 M 394 56 C 394 58.995, 394.151 59.108, 397.750 58.810 C 401.001 58.541, 401.500 58.167, 401.500 56 C 401.500 53.833, 401.001 53.459, 397.750 53.190 C 394.151 52.892, 394 53.005, 394 56 M 475 56 C 475 58.995, 475.151 59.108, 478.750 58.810 C 482.001 58.541, 482.500 58.167, 482.500 56 C 482.500 53.833, 482.001 53.459, 478.750 53.190 C 475.151 52.892, 475 53.005, 475 56 M 71.250 55.537 C 65.456 57.973, 64.819 66.658, 70.159 70.399 C 73.475 72.722, 75.773 72.381, 79.077 69.077 C 85.695 62.458, 79.652 52.004, 71.250 55.537 M 100 55.301 C 94.473 58.081, 93.769 66.100, 98.712 69.988 C 102.250 72.771, 104.643 72.510, 108.200 68.954 C 114.540 62.613, 107.794 51.381, 100 55.301 M 184.607 59.582 C 183.727 61.876, 183.798 62, 186 62 C 187.100 62, 188 61.812, 188 61.582 C 188 60.362, 186.681 58, 186 58 C 185.568 58, 184.941 58.712, 184.607 59.582" stroke="none" fill="#f8f9fb" fill-rule="evenodd"/><path d="M 0 60.002 L 0 120.004 270.250 119.752 L 540.500 119.500 540.758 59.750 L 541.016 -0 270.508 -0 L 0 0 0 60.002 M 0.469 60.500 C 0.469 93.500, 0.596 106.855, 0.750 90.178 C 0.904 73.501, 0.903 46.501, 0.749 30.178 C 0.595 13.855, 0.469 27.500, 0.469 60.500 M 65.857 29.555 L 58.214 32.016 54.207 39.758 C 47.422 52.866, 43.258 71.924, 45.354 80.276 C 45.949 82.644, 58.817 90.346, 65.633 92.414 C 67.487 92.976, 73.131 86.640, 71.791 85.501 C 71.631 85.365, 69.996 84.489, 68.157 83.553 C 62.778 80.816, 65.281 80.587, 74.205 82.998 C 84.408 85.756, 97.427 85.434, 105.750 82.220 C 111.677 79.931, 113.986 81.085, 108.610 83.649 C 104.915 85.411, 104.931 86.052, 108.815 91.818 C 109.907 93.441, 119.527 89.795, 127.278 84.822 L 132.265 81.621 131.734 71.061 C 131.119 58.846, 128.286 48.780, 122.603 38.617 L 118.940 32.068 110.918 29.534 C 101.247 26.479, 100.314 26.435, 99.500 29 C 98.919 30.831, 97.987 31, 88.500 31 C 79.013 31, 78.081 30.831, 77.500 29 C 76.695 26.462, 75.246 26.531, 65.857 29.555 M 305.074 47.206 C 291.697 54.139, 296.207 74.009, 311.154 73.996 C 328.394 73.981, 330.044 48.538, 313 45.530 C 310.415 45.074, 308.343 45.512, 305.074 47.206 M 343.500 46.155 C 335.480 50.541, 337.543 59.262, 347.396 62.619 C 350.789 63.775, 351.966 64.645, 351.563 65.697 C 351.253 66.504, 351 67.352, 351 67.582 C 351 68.769, 346.947 67.746, 344.724 65.997 C 342.067 63.908, 339.541 64.147, 338.609 66.577 C 336.356 72.448, 349.347 76.662, 355.288 71.988 C 361.409 67.173, 359.419 59.385, 351.500 57.161 C 346.570 55.777, 344.660 54.359, 345.625 52.798 C 346.330 51.658, 350.765 51.810, 351.500 53 C 352.806 55.114, 357 52.352, 357 49.378 C 357 46.234, 347.501 43.967, 343.500 46.155 M 413.250 46.085 C 410.180 47.245, 410.239 47.507, 416.639 61.034 C 424.718 78.111, 426.229 78.117, 434.365 61.111 C 440.736 47.794, 440.855 47.264, 437.750 46.072 C 434.761 44.926, 434.214 45.564, 429.476 55.731 L 425.452 64.365 421.291 55.282 C 416.651 45.152, 416.419 44.887, 413.250 46.085 M 183.031 47.687 C 175.527 60.465, 171.122 72.449, 173.582 73.393 C 176.676 74.580, 178.118 73.961, 179.150 71 C 180.149 68.133, 180.452 68, 185.977 68 C 191.457 68, 191.822 68.156, 193 71 C 194.243 74, 195.448 74.533, 198.418 73.393 C 200.856 72.457, 200.288 70.397, 194.173 58 C 188.257 46.007, 185.511 43.465, 183.031 47.687 M 203.222 59.750 L 203.500 73.500 210 73.776 C 218.388 74.133, 222.635 72.022, 225.794 65.926 C 231.384 55.139, 224.248 46.011, 210.222 46.004 L 202.944 46 203.222 59.750 M 231.222 59.750 L 231.500 73.500 239.323 73.500 L 247.146 73.500 251.073 69.289 C 260.865 58.788, 253.698 46, 238.021 46 L 230.944 46 231.222 59.750 M 268 48.500 C 268 50.831, 268.336 51, 272.967 51 L 277.934 51 278.217 62.250 L 278.500 73.500 281.500 73.500 L 284.500 73.500 284.783 62.250 L 285.066 51 290.033 51 C 294.664 51, 295 50.831, 295 48.500 L 295 46 281.500 46 L 268 46 268 48.500 M 362.222 59.716 L 362.500 73.500 373 73.500 L 383.500 73.500 383.500 70.500 L 383.500 67.500 376.250 67.206 C 366.883 66.827, 364.865 63, 374.031 63 C 382.645 63, 382.293 56.762, 373.648 56.195 C 366.312 55.714, 367.299 53, 374.809 53 C 389.488 53, 387.509 46.606, 372.710 46.216 L 361.943 45.932 362.222 59.716 M 387.436 47.305 C 387.161 48.023, 387.062 54.211, 387.218 61.055 L 387.500 73.500 390.500 73.500 C 393.245 73.500, 393.526 73.181, 393.810 69.750 C 394.278 64.102, 398.908 64.253, 401.500 70 C 404.652 76.991, 410.506 74.899, 407.849 67.731 C 406.469 64.007, 406.430 63.012, 407.581 60.934 C 410.105 56.378, 408.963 51.280, 404.633 47.772 C 401.937 45.588, 388.238 45.216, 387.436 47.305 M 443.222 59.716 L 443.500 73.500 454 73.500 L 464.500 73.500 464.500 70.500 L 464.500 67.500 457.250 67.206 C 447.883 66.827, 445.865 63, 455.031 63 C 463.645 63, 463.293 56.762, 454.648 56.195 C 447.312 55.714, 448.299 53, 455.809 53 C 470.488 53, 468.509 46.606, 453.710 46.216 L 442.943 45.932 443.222 59.716 M 468.436 47.305 C 468.161 48.023, 468.062 54.211, 468.218 61.055 L 468.500 73.500 471.500 73.500 C 474.245 73.500, 474.526 73.181, 474.810 69.750 C 475.284 64.033, 480.293 64.193, 482.617 70 C 485.456 77.096, 491.511 74.890, 488.933 67.699 C 487.552 63.849, 487.538 62.964, 488.814 60.270 C 490.773 56.133, 489.662 50.666, 486.328 48.043 C 483.183 45.570, 469.322 44.998, 468.436 47.305 M 306.455 54.455 C 302.515 58.394, 303.270 64.054, 308.065 66.534 C 315.598 70.429, 322.084 59.358, 315.365 54.073 C 311.905 51.351, 309.453 51.456, 306.455 54.455 M 210 60 L 210 67 213.045 67 C 216.527 67, 221 63.166, 221 60.180 C 221 56.629, 217.173 53, 213.427 53 L 210 53 210 60 M 238 60 C 238 67.716, 240.267 69.303, 245.777 65.443 C 250.935 61.831, 247.666 53, 241.171 53 L 238 53 238 60 M 394 56 C 394 58.995, 394.151 59.108, 397.750 58.810 C 401.001 58.541, 401.500 58.167, 401.500 56 C 401.500 53.833, 401.001 53.459, 397.750 53.190 C 394.151 52.892, 394 53.005, 394 56 M 475 56 C 475 58.995, 475.151 59.108, 478.750 58.810 C 482.001 58.541, 482.500 58.167, 482.500 56 C 482.500 53.833, 482.001 53.459, 478.750 53.190 C 475.151 52.892, 475 53.005, 475 56 M 71.250 55.537 C 65.456 57.973, 64.819 66.658, 70.159 70.399 C 73.475 72.722, 75.773 72.381, 79.077 69.077 C 85.695 62.458, 79.652 52.004, 71.250 55.537 M 100 55.301 C 94.473 58.081, 93.769 66.100, 98.712 69.988 C 102.250 72.771, 104.643 72.510, 108.200 68.954 C 114.540 62.613, 107.794 51.381, 100 55.301 M 184.607 59.582 C 183.727 61.876, 183.798 62, 186 62 C 187.100 62, 188 61.812, 188 61.582 C 188 60.362, 186.681 58, 186 58 C 185.568 58, 184.941 58.712, 184.607 59.582" stroke="none" fill="#748cdc" fill-rule="evenodd"/></svg>
